#!OML:ASF H:\Terrain\Patient Classification 1\PLAYGROUND\JustinFriday\JustinFriday.ASF
:FULLY-SPECIFIED
:DEGREES
1123
root -21.3197 30.027 -9.03419 307.636 84.7184 -56.0325
lowerback 38.4269 2.37523 -1.1174
upperback 8.78402 4.12257 4.00223
thorax -9.42327 2.31507 3.11603
lowerneck -8.22286 -3.03279 -4.86178
upperneck 12.6855 -4.16908 6.09416
head 5.39907 -1.81899 2.40839
rclavicle -1.51076e-014 -6.75868e-015
rhumerus 88.4052 0.00874449 -98.1187
rradius 83.4377
rwrist 25.4621
rhand 35.6354 -36.1349
rfingers 7.12502
rthumb 58.6894 -51.2213
lclavicle -1.51076e-014 -6.75868e-015
lhumerus 80.1891 20.823 66.0901
lradius 75.1077
lwrist 1.57951
lhand 29.9993 7.54478
lfingers 7.12502
lthumb 53.7064 26.5794
rfemur -81.4263 -1.994 29.7996
rtibia 95.2078
rfoot -17.8916 -3.93735
rtoes 9.01283
lfemur -38.3884 16.1748 -21.2103
ltibia 46.2204
lfoot -20.5603 -4.22442
ltoes 2.35833
1124
root -21.2965 30.0152 -9.01013 303.523 84.4213 -59.7654
lowerback 38.6387 2.20539 -0.627713
upperback 8.8231 4.0975 3.87055
thorax -9.40854 2.30398 2.72417
lowerneck -8.5783 -3.02942 -4.24789
upperneck 13.5931 -4.32091 6.52762
head 5.74764 -1.80781 2.43111
rclavicle -1.11319e-014 -1.15295e-014
rhumerus 88.1253 -0.242306 -98.3744
rradius 83.6217
rwrist 25.5862
rhand 33.3973 -36.991
rfingers 7.12502
rthumb 56.7326 -53.7976
lclavicle -1.11319e-014 -1.15295e-014
lhumerus 80.3479 20.534 66.1513
lradius 74.834
lwrist 1.27888
lhand 31.0395 6.5594
lfingers 7.12502
lthumb 54.639 24.956
rfemur -80.0476 -1.98069 30.271
rtibia 94.5875
rfoot -20.2924 -4.4061
rtoes 8.9194
lfemur -38.1175 16.9249 -20.6738
ltibia 46.4957
lfoot -20.6091 -5.05582
ltoes 2.40925
1125
root -21.2662 29.9865 -9.00275 301.266 84.1798 -61.9014
lowerback 38.7529 1.98604 -0.0988421
upperback 8.77308 3.96496 3.37057
thorax -9.41987 2.24098 1.96549
lowerneck -8.59085 -2.90529 -3.60815
upperneck 13.7005 -4.26584 6.68803
head 5.77053 -1.73214 2.38116
rclavicle 1.66979e-014 -1.98785e-015
rhumerus 87.8809 -0.435954 -99.155
rradius 83.8638
rwrist 25.7692
rhand 32.7262 -36.8483
rfingers 7.12502
rthumb 56.1398 -54.1292
lclavicle 1.66979e-014 -1.98785e-015
lhumerus 80.7697 20.0342 65.6854
lradius 74.49
lwrist 0.881341
lhand 31.3415 6.71855
lfingers 7.12502
lthumb 54.9088 24.923
rfemur -79.1181 -2.03923 30.6225
rtibia 94.1827
rfoot -22.6339 -4.99583
rtoes 8.25803
lfemur -38.4379 18.9996 -20.781
ltibia 46.8714
lfoot -20.5394 -7.40236
ltoes 3.78401
1126
root -21.2454 30.0038 -8.98569 300.264 84.3057 -62.6444
lowerback 38.9548 1.80969 0.168329
upperback 8.8106 3.78203 2.74624
thorax -9.36973 2.16484 1.23152
lowerneck -6.88263 -2.94146 -0.425855
upperneck 10.776 -4.34862 4.56166
head 4.46787 -1.85902 1.21616
rclavicle -1.09332e-014 1.78906e-014
rhumerus 87.7033 -0.709254 -99.8735
rradius 84.1388
rwrist 26.2216
rhand 31.8736 -36.6644
rfingers 7.12502
rthumb 55.383 -54.5223
lclavicle -1.09332e-014 1.78906e-014
lhumerus 80.8323 19.7207 64.8164
lradius 74.7646
lwrist 0.970045
lhand 31.2233 6.75292
lfingers 7.12502
lthumb 54.8032 25.033
rfemur -77.9178 -2.26831 30.672
rtibia 93.5886
rfoot -24.7244 -5.75785
rtoes 6.45787
lfemur -37.9752 17.1905 -20.2616
ltibia 47.2516
lfoot -20.6065 -5.75204
ltoes 2.99417
1127
root -21.2262 30.0002 -8.95377 297.955 84.4107 -64.7772
lowerback 39.0234 1.6545 0.670099
upperback 8.85209 3.84572 3.09264
thorax -9.34998 2.19174 1.31227
lowerneck -7.08214 -3.13974 -3.28253
upperneck 11.3783 -4.5364 6.49936
head 4.7972 -1.93812 2.26305
rclavicle -7.95139e-015 1.19271e-015
rhumerus 87.4033 -0.732164 -98.759
rradius 84.3257
rwrist 26.2544
rhand 31.527 -36.0927
rfingers 7.12502
rthumb 55.0743 -54.1775
lclavicle -7.95139e-015 1.19271e-015
lhumerus 80.6957 19.3661 65.7352
lradius 74.6925
lwrist 0.271417
lhand 31.6307 5.10294
lfingers 7.12502
lthumb 55.1668 23.1203
rfemur -77.0817 -2.44911 30.9826
rtibia 93.0605
rfoot -26.2241 -7.20643
rtoes 3.92317
lfemur -38.015 17.2356 -20.1121
ltibia 47.7153
lfoot -20.3599 -6.02487
ltoes 1.51734
